<svg width="140" height="128" viewBox="0 0 140 128" fill="none" xmlns="http://www.w3.org/2000/svg">
<path d="M90.7712 0.00217773C90.7429 -0.000869272 90.7155 -0.000854053 90.6887 0.00308359C90.6571 0.00756004 90.6262 0.0178937 90.5957 0.0307529C90.5126 0.0469038 90.4365 0.0843841 90.3681 0.14642C90.1085 0.381954 89.9692 0.805029 89.8379 1.90456C89.8366 1.915 89.8356 1.92402 89.8342 1.93495C89.7966 2.25324 89.7595 2.61826 89.7205 3.06145C89.6852 3.46127 89.6681 4.86462 89.6655 6.59405C89.6563 7.58409 89.6601 8.65074 89.6761 9.76764C89.692 11.9771 89.7245 14.1332 89.772 15.196C89.8115 16.0791 89.8575 16.9557 89.9078 17.8181C89.9233 18.1319 89.9396 18.4217 89.9569 18.6797C89.965 18.8017 89.9752 18.9298 89.9838 19.0534C90.2927 23.8246 90.7379 27.8978 91.116 29.148C91.1177 29.1543 91.1185 29.159 91.1198 29.165C91.1238 29.1934 91.1284 29.2233 91.1307 29.2432C91.1206 29.3141 91.0213 29.306 90.7353 29.2428C88.6926 28.7908 84.1325 28.7957 80.1621 29.2543C77.2549 29.5901 72.9117 30.6656 71.4348 31.4155L71.3036 31.4822C71.1708 31.5337 71.0554 31.5749 70.9717 31.5974C70.8691 31.6178 70.7929 31.6194 70.7299 31.6055L70.4354 31.4103C69.7207 30.9361 68.2974 30.1607 66.7946 29.4022C66.6263 29.3146 66.4606 29.2289 66.313 29.1548C65.7974 28.8956 65.2601 28.6395 64.706 28.3873C64.204 28.1534 63.7192 27.9335 63.2944 27.7536C56.8478 25.0236 49.0006 23.0446 42.478 22.5037C41.7455 22.4429 40.8453 22.4138 39.9602 22.4084C39.731 22.4016 39.5179 22.3976 39.3345 22.3978C39.001 22.3981 38.6856 22.4086 38.3828 22.4238C38.1794 22.4298 37.9865 22.4378 37.8077 22.449C37.0596 22.4872 36.4972 22.5493 36.3339 22.6318C36.2235 22.6876 36.1333 22.7417 36.0602 22.7967C35.8877 22.8978 35.8019 23.0189 35.8019 23.1609C35.8019 23.2207 35.8236 23.297 35.8627 23.3859C35.8865 23.4631 35.9227 23.5477 35.9708 23.642C36.083 23.8613 36.4632 24.3034 36.9506 24.8109C37.3368 25.2243 37.791 25.6677 38.2749 26.0975C38.7141 26.4986 39.1433 26.8675 39.4854 27.1215C40.5846 27.9377 42.84 29.4788 42.9352 29.4788C42.9737 29.4788 43.1628 29.5913 43.3553 29.7288C43.7734 30.0273 44.6879 30.5584 45.8391 31.1889C46.1333 31.3674 46.807 31.7252 47.6403 32.1548C50.1179 33.4586 53.0219 34.8994 54.739 35.6389C55.2865 35.8747 55.8667 36.1176 56.454 36.3608C56.7877 36.5045 57.2227 36.6828 57.7452 36.8892C60.1733 37.8705 62.5412 38.7629 63.5228 39.0486C63.8898 39.1554 64.0586 39.2235 64.1137 39.3042C64.1066 39.3714 64.0893 39.475 64.0624 39.6092C63.5886 40.9895 63.0272 44.642 63.0224 46.4615C63.0222 46.5625 63.0189 46.6579 63.0141 46.7468C63.0089 46.7975 63.005 46.8298 63.0003 46.8736C62.9678 47.0684 62.9305 47.1839 62.8869 47.2258C62.8166 47.2067 62.6857 47.1586 62.5166 47.0913C62.3025 47 62.0248 46.8762 61.7305 46.7393C61.1324 46.461 60.5135 46.1924 60.3551 46.1426C60.1967 46.0928 59.8065 45.9337 59.488 45.789C58.7498 45.4538 57.4557 44.9672 55.55 44.3085C50.3038 42.4949 44.2522 41.0821 39.0451 40.4552C38.4417 40.3825 37.4982 40.3051 36.514 40.2377C35.7506 40.1762 34.9978 40.1293 34.2597 40.0996C33.9114 40.0856 33.6373 40.0773 33.3963 40.073C32.8507 40.0566 32.4661 40.0568 32.398 40.083C32.3162 40.1144 32.2637 40.1779 32.2396 40.283C32.2189 40.3316 32.2115 40.3893 32.2115 40.4584C32.2115 40.4597 32.2118 40.4623 32.2118 40.4636C32.2118 40.4653 32.2115 40.4671 32.2115 40.4688C32.2115 40.5182 32.2282 40.6052 32.252 40.709C32.3059 41.0273 32.4393 41.4863 32.6604 42.1414C33.5716 44.8418 35.0126 48.3494 36.5226 51.654V51.6542C36.5788 51.7936 36.7322 52.124 36.9307 52.541C38.1987 55.2625 39.4864 57.7782 40.526 59.496C40.8992 60.1128 41.0936 60.4747 41.3033 60.6826C41.3493 60.745 41.3847 60.7873 41.403 60.7987C41.4083 60.8018 41.4311 60.8054 41.4616 60.8087C41.7768 60.9997 42.2105 60.9418 43.2727 60.8935C43.4406 60.8859 43.6954 60.8814 44.0052 60.8795C44.6146 60.8881 45.2724 60.8956 45.9882 60.8999C46.6276 60.9038 47.2429 60.911 47.8468 60.9196C50.2522 60.9658 52.8255 61.0432 53.6968 61.114C53.9516 61.1347 54.6683 61.189 55.2894 61.2346C55.4363 61.2454 55.5753 61.2576 55.7043 61.2707C56.0768 61.319 56.3169 61.37 56.3906 61.4226C56.3889 61.4665 56.3764 61.545 56.3562 61.6456C56.3243 61.7611 56.2839 61.9011 56.2379 62.0506C55.2552 65.2501 53.0598 72.9449 53.0598 73.1898C53.0598 73.2122 53.0637 73.2338 53.0693 73.2554C53.0662 73.2716 53.0598 73.2992 53.0598 73.3053C53.0598 73.335 53.1048 73.3765 53.1939 73.43C53.422 73.6222 53.9909 73.8538 55.2605 74.3061C57.3699 75.0577 60.0323 76.0532 60.6682 76.3244C60.6894 76.3361 60.7131 76.3481 60.7329 76.3598C60.8743 76.4432 60.9755 76.5404 61.0763 76.7211C61.1121 76.7919 61.144 76.8672 61.167 76.9422C61.2406 77.1822 61.4071 77.6531 61.5373 77.9889C61.552 78.0268 61.5637 78.059 61.5765 78.0932C61.6562 78.3592 61.6971 78.5385 61.7049 78.676C61.6976 78.7598 61.6747 78.8398 61.6355 78.9346C61.513 79.2312 61.4211 79.2795 60.8401 79.3521C60.4777 79.3974 60.0931 79.4983 59.719 79.6349C59.4787 79.7133 59.2473 79.8139 59.0238 79.9375C58.4004 80.2552 57.8788 80.6552 57.6525 81.0379C57.4877 81.1801 57.3502 81.28 57.279 81.3037C57.1853 81.2016 57.0366 81.0073 56.882 80.7785C56.6977 80.5057 56.2534 79.9813 55.8126 79.5068C55.7541 79.4432 55.6955 79.381 55.6371 79.3204C55.6039 79.2857 55.5695 79.2473 55.5369 79.2138C54.7288 78.3844 54.5518 78.2545 54.2108 78.2504C54.209 78.2503 54.2064 78.2494 54.2047 78.2494C54.2029 78.2494 54.2007 78.2496 54.199 78.2496C54.1973 78.2496 54.196 78.2494 54.1941 78.2494C54.1892 78.2494 54.1848 78.2499 54.18 78.2499C54.1783 78.2498 54.1765 78.2494 54.1748 78.2494C54.1668 78.2494 54.1589 78.2508 54.1509 78.2512C53.6819 78.2674 53.42 78.5466 53.3252 79.1323C53.2911 79.3426 53.1968 79.5775 53.1017 79.7023C53.0689 79.7274 53.0367 79.7627 53.0055 79.8066C52.7907 80.0459 52.6639 80.5336 52.6209 81.2025C52.6066 81.3572 52.5965 81.5137 52.5965 81.6695C52.5965 81.8787 52.6065 82.1071 52.6212 82.3445C52.6929 83.8389 53.0236 85.7971 53.5921 87.8296C53.7529 88.4044 53.9575 89.1437 54.0468 89.4725C54.3071 90.4312 54.7742 91.7231 55.3052 93.0126C55.4546 93.431 55.7444 94.0909 56.0895 94.8097C56.5088 95.7165 56.9263 96.5348 57.2824 97.1192C58.352 98.8746 59.2186 99.8319 60.0866 100.217C60.6749 100.478 61.0459 100.434 61.4181 100.061L61.6626 99.8161L62.4286 100.067C62.4466 100.073 62.47 100.079 62.4888 100.085C62.7627 100.194 63.052 100.275 63.414 100.334C63.5899 100.374 63.7578 100.41 63.8893 100.432C64.7754 100.578 68.7944 100.576 70.6071 100.428C71.3715 100.365 72.6316 100.28 73.4072 100.238L74.8175 100.161L74.7525 100.646C74.7162 100.917 74.7457 101.13 74.8324 101.284C74.9302 101.474 75.1144 101.571 75.3789 101.575C75.6355 101.585 75.9625 101.509 76.3535 101.341L76.9306 101.092L77.3083 101.505C77.376 101.604 77.4487 101.679 77.5269 101.731C77.6519 101.852 77.7541 101.938 77.7825 101.938C77.9255 101.938 78.3631 101.681 78.6222 101.444L78.7534 101.325C78.8064 101.29 78.8472 101.27 78.8817 101.264C78.9041 101.267 78.9266 101.274 78.9493 101.284L79.243 101.579C79.6689 102.006 79.8084 101.988 80.6837 101.398L81.2583 101.01L81.3352 101.094L81.649 101.472C82.221 102.162 82.5753 102.123 83.4302 101.275L83.9406 100.769C84.0281 100.702 84.1016 100.656 84.1623 100.63L84.6498 100.769C84.9279 100.848 85.135 100.901 85.3092 100.934L85.7123 101.053L85.9919 100.909C86.1154 100.867 86.2486 100.805 86.4156 100.72L87.0273 100.409L87.6777 101.045C87.6941 101.061 87.7093 101.075 87.7254 101.09C87.8632 101.23 87.9964 101.346 88.1245 101.442C88.826 101.997 89.2375 101.926 89.4443 101.234C89.4657 101.163 89.4839 101.111 89.5037 101.05C89.5513 100.915 89.5968 100.814 89.6236 100.786C89.6592 100.798 90.0049 100.994 90.4272 101.241C90.8632 101.497 91.295 101.706 91.3866 101.706C91.6101 101.706 91.9765 101.363 91.9765 101.153C91.9765 101.152 91.9768 101.151 91.9768 101.15C92.0268 101.092 92.0801 101.058 92.1274 101.054C92.1443 101.059 92.1593 101.061 92.1792 101.07C92.2907 101.117 92.6576 101.181 92.9945 101.213C93.5943 101.27 93.6099 101.263 93.7438 100.908C93.7912 100.782 93.8276 100.7 93.8818 100.646C93.8867 100.642 93.8921 100.639 93.8971 100.635C93.9624 100.599 94.0561 100.573 94.1892 100.552C94.206 100.551 94.2206 100.549 94.239 100.548C94.2394 100.548 94.2396 100.548 94.2405 100.548C94.2848 100.546 94.3334 100.545 94.3876 100.545C94.3889 100.545 94.3899 100.545 94.3912 100.545C94.4129 100.545 94.4305 100.545 94.4541 100.545C94.4936 100.545 94.5287 100.541 94.5661 100.54C94.5836 100.539 94.6028 100.538 94.6197 100.537C95.1503 100.499 95.4511 100.281 95.4515 99.9172C95.4516 99.7667 95.4643 99.7093 96.2505 99.685L97.2216 99.7106C98.2547 99.7381 99.5334 99.708 100.884 99.6339C102.631 99.5842 103.886 99.4595 106.107 99.1581L107.447 98.9765L107.668 98.9483L107.691 98.9685L107.96 99.2647C108.242 99.5743 108.552 99.7613 108.891 99.8274C108.895 99.8283 108.9 99.8286 108.905 99.8294C109.225 99.8884 109.571 99.8406 109.944 99.6841C110.353 99.5126 110.869 99.0345 111.406 98.3714C111.734 97.9762 112.057 97.5203 112.369 97.0094C112.759 96.3869 113.13 95.7016 113.448 95.0005C115.094 91.3661 116.161 86.6928 116.319 83.3848C116.366 82.8043 116.385 82.3636 116.356 82.2669C116.349 82.2464 116.341 82.1916 116.332 82.1222C116.289 80.8039 116.049 79.8352 115.579 79.4469C115.452 79.3424 115.269 79.0972 115.139 78.8677C115.132 78.7543 115.055 78.6323 114.946 78.5259C114.844 78.3765 114.745 78.3181 114.57 78.2893C114.521 78.2726 114.472 78.2608 114.425 78.2546C114.417 78.2537 114.41 78.2535 114.403 78.2526C114.391 78.2513 114.38 78.2494 114.369 78.2494C114.367 78.2494 114.365 78.2499 114.364 78.2503C114.36 78.2503 114.357 78.2494 114.353 78.2494C114.305 78.2494 114.256 78.2568 114.207 78.2696C114.005 78.2895 113.871 78.388 113.624 78.6515C113.551 78.7291 113.475 78.798 113.403 78.8552C113.341 78.9004 113.28 78.9424 113.226 78.9745C113.165 79.0064 113.116 79.0206 113.087 79.0096C112.962 78.9614 112.791 79.0523 112.591 79.2605C112.456 79.3872 112.31 79.5783 112.146 79.8413C111.944 80.1527 111.726 80.5418 111.501 81.0009C111.193 81.6311 110.962 82.0929 110.871 82.266C110.837 82.323 110.804 82.377 110.785 82.4009C110.723 82.3707 110.403 82.0775 110.03 81.7054C108.718 80.3982 107.376 79.4802 106.452 79.2578C106.244 79.2076 106.077 79.0119 105.867 78.5733C105.706 78.2355 105.179 77.1753 104.695 76.2173C103.056 72.969 102.111 70.0251 101.88 67.4502C101.842 67.0351 101.785 66.4729 101.752 66.201C101.739 66.0949 101.731 66.0124 101.734 65.9359C101.751 65.8262 101.78 65.7314 101.821 65.6413C101.93 65.4572 102.156 65.2162 102.598 64.7495C103.097 64.2231 103.686 63.5573 103.906 63.2699C104.126 62.9825 104.335 62.7212 104.371 62.6893C104.59 62.4947 105.135 61.6232 105.67 60.6724C105.941 60.2152 106.18 59.7674 106.384 59.3358C106.609 58.8876 106.793 58.4895 106.891 58.2186C107.177 57.4254 107.395 56.0227 107.371 55.1237C107.326 53.4356 107.063 52.3282 105.992 49.3354C104.953 46.4286 104.656 45.3752 104.01 42.3101C103.528 40.0195 103.179 38.8651 102.429 37.0847L101.868 35.7511C101.851 35.583 101.839 35.3688 101.832 35.0916L101.829 34.9269C101.824 34.6947 101.821 34.4389 101.821 34.1232C101.821 33.5493 101.809 32.9171 101.788 32.263C101.774 31.6509 101.756 31.0865 101.729 30.5432C101.561 26.294 101.06 22.9086 99.9725 18.4308C98.4027 11.9697 95.3891 5.18927 92.4469 1.49876C91.8604 0.763155 91.4001 0.310886 91.0382 0.122554C90.9327 0.0500081 90.847 0.0108791 90.7715 0.00212369L90.7712 0.00217773ZM64.6213 63.4627L65.5574 65.3394L63.8024 72.4947L60.0583 70.6179L64.6213 63.4627Z" fill="black"/>
<path d="M77.8509 101.927C77.8239 101.934 77.8007 101.938 77.7822 101.938C77.7823 101.938 77.7823 101.939 77.7825 101.939C77.8009 101.939 77.8239 101.934 77.8509 101.927Z" fill="#FFD73E"/>
<path d="M91.3368 101.696C91.3587 101.703 91.3759 101.706 91.3876 101.706C91.4018 101.706 91.4166 101.705 91.4319 101.702C91.4166 101.705 91.4016 101.706 91.3874 101.706C91.3757 101.706 91.3587 101.703 91.3368 101.696Z" fill="#FFD73E"/>
<path d="M75.5843 101.566C75.5115 101.574 75.4428 101.577 75.3787 101.574C75.3456 101.574 75.314 101.572 75.2834 101.569C75.314 101.572 75.3458 101.574 75.3789 101.575C75.4431 101.577 75.5115 101.574 75.5843 101.566Z" fill="#FFD73E"/>
<path d="M78.8245 101.284C78.8033 101.294 78.7797 101.307 78.7532 101.325L78.622 101.444C78.4924 101.563 78.3184 101.686 78.1587 101.78C78.3184 101.686 78.4926 101.563 78.6222 101.444L78.7534 101.325C78.7799 101.307 78.8033 101.294 78.8245 101.284Z" fill="#FFD73E"/>
<path d="M78.8812 101.264C78.864 101.267 78.8455 101.274 78.8245 101.284C78.8455 101.274 78.8643 101.267 78.8814 101.264C78.9038 101.267 78.9261 101.274 78.9487 101.284L78.9485 101.284C78.9259 101.274 78.9035 101.267 78.8812 101.264Z" fill="#FFD73E"/>
<path d="M92.0154 101.111C92.0023 101.123 91.9893 101.136 91.9766 101.151C91.9766 101.152 91.9763 101.152 91.9763 101.153C91.9763 101.167 91.975 101.18 91.9722 101.195C91.975 101.18 91.9766 101.167 91.9766 101.154C91.9766 101.153 91.9768 101.152 91.9768 101.151C91.9895 101.136 92.0023 101.123 92.0154 101.111Z" fill="#FFD73E"/>
<path d="M76.9303 101.092L76.3533 101.341C76.3044 101.362 76.2566 101.381 76.2098 101.4C76.2567 101.381 76.3046 101.362 76.3535 101.341L76.9306 101.092L76.9303 101.092Z" fill="#FFD73E"/>
<path d="M81.2581 101.01L80.6835 101.397C80.5741 101.471 80.4762 101.536 80.3878 101.592C80.4762 101.536 80.5743 101.471 80.6837 101.398L81.2583 101.01L81.2581 101.01Z" fill="#FFD73E"/>
<path d="M89.5714 100.878C89.5507 100.924 89.5273 100.983 89.5035 101.05C89.4837 101.111 89.4654 101.163 89.444 101.234C89.4311 101.278 89.4174 101.318 89.4028 101.357C89.4174 101.318 89.4313 101.278 89.4442 101.235C89.4656 101.163 89.4839 101.111 89.5037 101.05C89.5275 100.983 89.5507 100.924 89.5714 100.878Z" fill="#FFD73E"/>
<path d="M89.6249 100.785C89.6177 100.793 89.6094 100.805 89.6001 100.822C89.6094 100.805 89.618 100.793 89.6251 100.786C89.6251 100.786 89.6249 100.785 89.6249 100.785Z" fill="#FFD73E"/>
<path d="M93.8101 100.75C93.7883 100.793 93.7673 100.845 93.7436 100.908C93.7268 100.952 93.712 100.991 93.6976 101.025C93.712 100.991 93.727 100.952 93.7438 100.908C93.7675 100.845 93.7883 100.793 93.8101 100.75Z" fill="#FFD73E"/>
<path d="M93.883 100.646C93.8554 100.673 93.8323 100.707 93.8101 100.751C93.8323 100.707 93.8556 100.673 93.8832 100.646C93.8832 100.646 93.883 100.646 93.883 100.646Z" fill="#FFD73E"/>
<path d="M94.1889 100.552C94.0891 100.567 94.0115 100.586 93.9514 100.61C94.0115 100.586 94.0892 100.567 94.1889 100.552Z" fill="#FFD73E"/>
<path d="M94.3839 100.546C94.3312 100.546 94.2836 100.546 94.2403 100.548C94.2394 100.548 94.2389 100.548 94.2385 100.548C94.2203 100.549 94.2059 100.551 94.1892 100.552C94.206 100.551 94.2205 100.549 94.2387 100.548C94.2393 100.548 94.2395 100.548 94.2401 100.548C94.2834 100.547 94.3311 100.546 94.3839 100.546Z" fill="#FFD73E"/>
<path d="M94.8076 100.514C94.7486 100.525 94.6858 100.532 94.6194 100.537C94.6026 100.538 94.5835 100.539 94.566 100.54C94.5836 100.539 94.6028 100.538 94.6197 100.537C94.686 100.532 94.7486 100.525 94.8076 100.514Z" fill="#FFD73E"/>
<path d="M84.0614 100.684C84.0245 100.707 83.9841 100.735 83.9404 100.768L83.43 101.275C83.3766 101.328 83.3252 101.378 83.2755 101.425C83.3252 101.378 83.3768 101.328 83.4302 101.275L83.9406 100.769C83.9843 100.735 84.0245 100.707 84.0614 100.684Z" fill="#FFD73E"/>
<path d="M87.0271 100.409L86.4154 100.719C86.2483 100.804 86.1152 100.867 85.9917 100.908L85.7121 101.053L85.309 100.934C85.1348 100.901 84.9277 100.847 84.6496 100.768L84.1621 100.63C84.1317 100.643 84.0983 100.661 84.0614 100.684C84.0983 100.661 84.132 100.643 84.1623 100.63L84.6498 100.769C84.9279 100.848 85.135 100.901 85.3092 100.934L85.7123 101.053L85.9919 100.909C86.1154 100.867 86.2486 100.805 86.4157 100.72L87.0273 100.409L87.0271 100.409Z" fill="#FFD73E"/>
<path d="M63.2031 100.294C63.2713 100.308 63.3402 100.322 63.414 100.334C63.5898 100.374 63.7577 100.41 63.8892 100.432C63.9446 100.441 64.012 100.45 64.0906 100.458C64.012 100.45 63.9444 100.441 63.889 100.432C63.7575 100.41 63.5896 100.374 63.4137 100.333C63.3401 100.321 63.2712 100.308 63.2031 100.294Z" fill="#FFD73E"/>
<path d="M72.0029 100.325C71.4953 100.359 70.9891 100.396 70.6069 100.427C70.3804 100.446 70.1194 100.462 69.8344 100.476C70.1195 100.462 70.3805 100.446 70.6071 100.428C70.9893 100.396 71.4953 100.359 72.0029 100.325Z" fill="#FFD73E"/>
<path d="M74.8172 100.161L73.4069 100.238C73.0192 100.259 72.5103 100.29 72.0028 100.325C72.5103 100.29 73.0194 100.259 73.4072 100.238L74.8172 100.162V100.161Z" fill="#FFD73E"/>
<path d="M95.4536 99.8649C95.4517 99.8811 95.4514 99.8986 95.4513 99.9176C95.4513 99.9406 95.4503 99.963 95.4479 99.9848C95.4503 99.963 95.4515 99.9408 95.4516 99.9178C95.4516 99.8988 95.4517 99.8811 95.4536 99.8649Z" fill="#FFD73E"/>
<path d="M61.6624 99.8159L61.4178 100.061C61.3946 100.084 61.3715 100.107 61.3481 100.127C61.3715 100.107 61.3948 100.085 61.418 100.061L61.6626 99.8161L62.4286 100.067C62.4465 100.073 62.4699 100.079 62.4887 100.085L62.4885 100.085C62.4697 100.079 62.4463 100.072 62.4283 100.067L61.6624 99.8159Z" fill="#FFD73E"/>
<path d="M108.765 99.7968C108.806 99.8088 108.848 99.819 108.89 99.8272C108.895 99.8281 108.9 99.8284 108.904 99.8292C108.9 99.8283 108.895 99.8279 108.89 99.827C108.848 99.8188 108.806 99.8088 108.765 99.7968Z" fill="#FFD73E"/>
<path d="M95.7937 99.7102C95.6261 99.7269 95.5407 99.7505 95.4969 99.7839C95.5406 99.7505 95.6263 99.7269 95.7937 99.7102Z" fill="#FFD73E"/>
<path d="M96.2503 99.6848C96.152 99.6879 96.0659 99.6915 95.9904 99.6957C96.0659 99.6915 96.1522 99.6881 96.2505 99.685L97.2217 99.7107C97.7382 99.7244 98.3161 99.7236 98.9337 99.7102C98.3161 99.7236 97.738 99.7242 97.2214 99.7104L96.2503 99.6848Z" fill="#FFD73E"/>
<path d="M101.519 99.6116C101.313 99.6203 101.102 99.6276 100.883 99.6338C100.546 99.6523 100.213 99.6682 99.887 99.681C100.213 99.6682 100.546 99.6525 100.884 99.634C101.102 99.6278 101.313 99.6203 101.519 99.6116Z" fill="#FFD73E"/>
<path d="M107.668 98.9482L107.447 98.9763L106.107 99.158C105.829 99.1956 105.567 99.2306 105.316 99.263C105.567 99.2306 105.829 99.1959 106.107 99.1582L107.447 98.9765L107.668 98.9484L107.668 98.9482Z" fill="#FFD73E"/>
<path d="M111.651 98.0639C111.569 98.1701 111.488 98.2727 111.405 98.3714C111.338 98.4543 111.272 98.5343 111.205 98.6112C111.272 98.5343 111.339 98.4543 111.406 98.3714C111.488 98.2726 111.569 98.1702 111.651 98.0639Z" fill="#FFD73E"/>
<path d="M116.332 82.1223C116.341 82.1916 116.349 82.2464 116.355 82.267C116.37 82.3153 116.373 82.4495 116.366 82.6443C116.373 82.4497 116.37 82.3153 116.356 82.267C116.349 82.2464 116.341 82.1916 116.332 82.1223Z" fill="#FFD73E"/>
<path d="M57.1991 81.2108C57.2292 81.2473 57.2565 81.2789 57.2804 81.3048C57.2804 81.3047 57.2805 81.3048 57.2806 81.3048C57.2567 81.2789 57.2292 81.2473 57.1991 81.2108Z" fill="#FFD73E"/>
<path d="M56.7767 80.6367C56.8131 80.6853 56.8553 80.7393 56.8817 80.7785C56.959 80.8929 57.0349 80.9986 57.1032 81.0885C57.0349 80.9986 56.9592 80.8929 56.8819 80.7785C56.8555 80.7393 56.8131 80.6854 56.7767 80.6367Z" fill="#FFD73E"/>
<path d="M55.2618 78.9344C55.3447 79.0173 55.4357 79.1101 55.5367 79.2138C55.5693 79.2473 55.6037 79.2856 55.6369 79.3204C55.6954 79.381 55.7539 79.4432 55.8125 79.5068C56.0328 79.7441 56.2542 79.9938 56.4434 80.2183C56.2542 79.9938 56.033 79.7441 55.8127 79.5068C55.7541 79.4432 55.6956 79.381 55.6371 79.3204C55.6039 79.2857 55.5696 79.2473 55.5369 79.2138C55.4359 79.1101 55.3447 79.0173 55.2618 78.9344Z" fill="#FFD73E"/>
<path d="M101.868 65.5692C101.85 65.5943 101.835 65.6183 101.821 65.6413C101.801 65.6864 101.783 65.7326 101.768 65.7813C101.783 65.7326 101.801 65.6864 101.821 65.6413C101.835 65.6183 101.85 65.5943 101.868 65.5692Z" fill="#FFD73E"/>
<path d="M102.982 64.3368C102.853 64.4777 102.723 64.618 102.598 64.7496C102.488 64.8662 102.391 64.9687 102.305 65.0598C102.391 64.9687 102.488 64.8662 102.598 64.7496C102.723 64.618 102.853 64.4777 102.982 64.3368Z" fill="#FFD73E"/>
<path d="M104.207 62.8839C104.123 62.9891 104.015 63.1263 103.905 63.2699C103.85 63.3418 103.772 63.4371 103.679 63.5482C103.772 63.4372 103.851 63.3417 103.906 63.2699C104.016 63.1262 104.123 62.9891 104.207 62.8839Z" fill="#FFD73E"/>
<path d="M104.468 62.5857C104.431 62.63 104.398 62.665 104.371 62.6893C104.353 62.7053 104.292 62.7785 104.207 62.8837C104.292 62.7786 104.353 62.7053 104.371 62.6893C104.399 62.665 104.431 62.63 104.468 62.5857Z" fill="#FFD73E"/>
<path d="M55.9584 61.3074C56.1103 61.3322 56.2274 61.3575 56.3047 61.3834C56.2273 61.3575 56.1105 61.3322 55.9584 61.3074Z" fill="#FFD73E"/>
<path d="M43.5856 60.8842C43.4622 60.8865 43.3567 60.8895 43.2727 60.8933C43.0072 60.9054 42.7809 60.9181 42.5859 60.9273C42.7809 60.9181 43.0072 60.9056 43.2727 60.8935C43.3567 60.8897 43.4622 60.8865 43.5856 60.8842Z" fill="#FFD73E"/>
<path d="M44.0052 60.8793C43.8503 60.8803 43.709 60.882 43.5856 60.8843C43.709 60.882 43.8503 60.8805 44.0052 60.8795C44.6146 60.8882 45.2724 60.8956 45.9882 60.8999C46.6276 60.9039 47.2429 60.911 47.8468 60.9196C47.2429 60.911 46.6276 60.9036 45.9882 60.8997C45.2724 60.8954 44.6146 60.8879 44.0052 60.8793Z" fill="#FFD73E"/>
<path d="M41.3634 60.7597C41.3802 60.7794 41.3937 60.7928 41.4028 60.7984C41.4081 60.8019 41.4307 60.805 41.4611 60.8083C41.4807 60.8202 41.5005 60.831 41.5212 60.841C41.5005 60.831 41.4807 60.82 41.4611 60.8081C41.4308 60.8048 41.4081 60.8013 41.4028 60.7982C41.3937 60.7926 41.3802 60.7794 41.3634 60.7597Z" fill="#FFD73E"/>
<path d="M105.867 60.3313C105.803 60.4443 105.737 60.5581 105.669 60.6724C105.536 60.9101 105.402 61.1427 105.272 61.3612C105.401 61.1428 105.536 60.9101 105.67 60.6724C105.737 60.5581 105.803 60.4443 105.867 60.3313Z" fill="#FFD73E"/>
<path d="M106.544 59.0102C106.494 59.1148 106.44 59.2238 106.383 59.3359C106.332 59.4438 106.279 59.5527 106.224 59.6625C106.279 59.5527 106.333 59.4438 106.384 59.3359C106.44 59.2238 106.494 59.1148 106.544 59.0102Z" fill="#FFD73E"/>
<path d="M106.995 57.8948C106.961 58.0109 106.926 58.1196 106.891 58.2187C106.866 58.2864 106.837 58.362 106.802 58.4444C106.837 58.362 106.866 58.2864 106.891 58.2187C106.927 58.1196 106.961 58.0109 106.995 57.8948Z" fill="#FFD73E"/>
<path d="M107.36 54.824C107.365 54.9222 107.368 55.0219 107.371 55.1238C107.374 55.2362 107.373 55.3562 107.369 55.4821C107.373 55.3563 107.374 55.2361 107.371 55.1238C107.368 55.0218 107.365 54.9222 107.36 54.824Z" fill="#FFD73E"/>
<path d="M103.835 41.501C103.892 41.7552 103.95 42.0239 104.01 42.3102C104.091 42.6933 104.166 43.0449 104.238 43.3727C104.166 43.0449 104.091 42.6933 104.01 42.3102C103.95 42.0239 103.892 41.7552 103.835 41.501Z" fill="black"/>
<path d="M101.846 35.4622C101.852 35.5714 101.859 35.6671 101.868 35.7512L102.429 37.0847L101.868 35.7512C101.859 35.6671 101.852 35.5714 101.846 35.4622Z" fill="black"/>
<path d="M91.0446 28.881C91.0687 28.9807 91.0924 29.0698 91.116 29.148C91.1179 29.1543 91.1185 29.1589 91.1201 29.1648C91.1188 29.1589 91.118 29.1544 91.1163 29.148C91.0927 29.0699 91.0687 28.9806 91.0446 28.881Z" fill="#FFD73E"/>
<path d="M90.5984 26.064C90.7476 27.3064 90.8999 28.2828 91.0445 28.8808C90.8998 28.2828 90.7476 27.3066 90.5984 26.064Z" fill="#FFD73E"/>
<path d="M89.8361 16.5149C89.8588 16.9522 89.8826 17.3869 89.9078 17.8181C89.9233 18.1319 89.9397 18.4217 89.9569 18.6797C89.965 18.8017 89.9752 18.9298 89.9838 19.0534C90.061 20.2462 90.147 21.3953 90.238 22.4677C90.147 21.3953 90.0612 20.2462 89.984 19.0534C89.9754 18.9298 89.9652 18.8017 89.9571 18.6797C89.9399 18.4217 89.9235 18.1319 89.908 17.8181C89.8829 17.387 89.8588 16.9521 89.8361 16.5149Z" fill="#FFD73E"/>
<path d="M92.2328 1.23621C92.3022 1.31934 92.3735 1.40689 92.4468 1.49884C92.5387 1.61417 92.6307 1.73229 92.7228 1.85355C92.6308 1.73238 92.5389 1.61408 92.447 1.49884C92.3737 1.40689 92.3022 1.31934 92.2328 1.23621Z" fill="#FFD73E"/>
<path d="M89.6913 11.3983C89.7094 12.9867 89.7364 14.3989 89.772 15.196C89.7918 15.6375 89.8134 16.0774 89.8361 16.5146C89.8133 16.0773 89.792 15.6376 89.7723 15.196C89.7366 14.3989 89.7094 12.9867 89.6913 11.3983Z" fill="#FFD73E"/>
<path d="M89.6809 4.32904C89.6719 4.94603 89.6668 5.72936 89.6655 6.59407C89.6564 7.58411 89.6602 8.65076 89.6762 9.76765C89.6801 10.32 89.6853 10.8689 89.6913 11.3983C89.6853 10.8689 89.6804 10.32 89.6764 9.76765C89.6604 8.65076 89.6566 7.58411 89.6658 6.59407C89.6671 5.72935 89.6719 4.94603 89.6809 4.32904Z" fill="#FFD73E"/>
<path d="M90.3681 0.146435C90.1085 0.38197 89.9692 0.805046 89.8379 1.90457C89.8367 1.91501 89.8354 1.92403 89.8343 1.93496C89.7967 2.25326 89.7595 2.61829 89.7205 3.06147C89.7161 3.11145 89.7121 3.17695 89.7083 3.25697C89.7121 3.17695 89.7163 3.11145 89.7207 3.06147C89.7598 2.61829 89.7969 2.25326 89.8345 1.93496C89.8358 1.92403 89.8368 1.91502 89.8381 1.90457C89.9695 0.805049 90.1087 0.381969 90.3683 0.146435C90.3683 0.146476 90.3681 0.146394 90.3681 0.146435Z" fill="#FFD73E"/>
<path d="M90.5869 9.85217L90.5878 10.7362C90.588 10.9462 90.5922 11.2066 90.5977 11.4881L90.6156 12.1628C90.6978 15.0675 90.9571 20.0279 91.1051 21.1748C91.1299 21.3664 91.1837 21.9673 91.2248 22.5102C91.323 23.8066 91.816 27.656 91.9749 28.3673C92.1643 29.2143 92.2518 29.3088 93.1013 29.5831C93.8613 29.8286 94.4671 30.1217 94.7898 30.3654C94.8931 30.4354 94.9608 30.496 94.9798 30.5423C95.1016 30.6962 95.0573 30.811 94.7936 30.8487C94.6549 30.8685 94.264 30.8008 93.9249 30.6983C92.9442 30.4018 90.0274 29.8398 88.9588 29.7414C88.7861 29.7255 88.601 29.7124 88.4102 29.7002C87.6961 29.6686 86.8727 29.6621 85.7797 29.663C85.0903 29.6637 84.4787 29.6731 83.8969 29.6888C82.5643 29.7467 81.2595 29.8518 80.2204 29.9986C76.978 30.4568 75.9405 30.6774 73.5606 31.4145C72.989 31.5915 72.5965 31.709 72.3394 31.806C72.2689 31.8341 72.2046 31.861 72.1487 31.886C71.772 32.0703 71.9577 32.2102 72.3759 32.6535C72.3988 32.6779 72.4177 32.6993 72.4397 32.7229C72.5646 32.8445 72.6746 32.9697 72.7684 33.0935C73.109 33.5039 73.2333 33.7631 73.1536 33.8923C73.0174 34.1132 72.7222 34.0004 72.1313 33.5017C70.371 32.0163 65.5383 29.4137 61.7463 27.9089C57.033 26.0385 52.1681 24.6823 47.1526 23.8406C45.805 23.6145 45.7861 23.5482 45.7201 24.4167C45.7111 24.7312 45.7048 25.0992 45.7048 25.5101C45.7048 25.9397 45.7078 26.2735 45.7166 26.554C45.8452 27.7954 46.2112 28.9529 46.8001 29.9467L47.0354 30.344C47.1813 30.5489 47.319 30.7025 47.4333 30.7743C47.5108 30.8229 47.7021 30.9265 47.9416 31.0535L50.4348 32.2993C52.1856 33.1741 53.6449 33.89 53.6778 33.89C53.7108 33.89 54.1454 34.0799 54.6438 34.3121C58.0448 35.8965 64.6105 38.3098 66.415 38.6389C67.1374 38.7707 67.2794 38.8219 67.3016 39.0388C67.3033 39.0467 67.3061 39.0546 67.3061 39.0624C67.3061 39.0691 67.3044 39.0753 67.3039 39.0819C67.3048 39.0956 67.3061 39.1073 67.3061 39.1222C67.3061 39.2731 67.2199 39.3537 67.0455 39.366C66.9503 39.3728 66.8146 39.3746 66.6627 39.3729C66.5132 39.3785 66.3381 39.373 66.1377 39.3561C65.8397 39.3414 65.5623 39.319 65.409 39.2944C65.3339 39.2902 65.2731 39.2883 65.2222 39.288C65.0031 39.3987 64.7979 40.1308 64.4804 41.8758C64.2095 43.3649 64.0354 45.1291 63.9735 46.7934C63.9683 47.7638 63.9929 48.9343 64.0483 50.3739C64.058 50.4695 64.0673 50.5665 64.0784 50.6574C64.1262 51.0472 64.2218 52.6495 64.2908 54.2181C64.4912 58.77 64.7454 60.4914 65.5052 62.4409C65.8288 63.2713 66.2092 64.0277 66.6559 64.7223C67.0786 65.3697 67.5637 65.97 68.1157 66.5267C68.5298 66.9441 68.9947 67.3465 69.488 67.7221C70.1559 68.2182 70.9001 68.6748 71.7316 69.1008C72.2301 69.3562 72.9368 69.6579 73.302 69.771C73.6472 69.8779 73.8708 69.9898 73.9614 70.0978C74.0036 70.1439 74.0239 70.1912 74.0239 70.245C74.0239 70.2648 74.0204 70.2827 74.0153 70.2999C73.9953 70.5899 73.5877 70.5897 72.5182 70.3248C70.6525 69.8628 68.0516 68.0899 66.6555 66.3284L66.1918 65.7435C66.1457 65.7117 66.1069 65.7006 66.0746 65.7161L66.0074 66.1545C65.962 66.4512 65.8714 67.1643 65.8061 67.7391C65.5662 69.8504 63.9822 75.5004 62.8623 78.239C62.739 78.5405 62.6333 78.8215 62.5854 78.9706C62.5744 79.0159 62.5671 79.0546 62.5628 79.0876C62.5898 79.1405 62.797 79.2312 63.0496 79.2979C63.9787 79.5431 65.2291 80.2262 65.7538 80.7752C66.2742 81.3197 66.388 81.6335 66.1666 81.6656C66.0374 81.7221 65.7954 81.6536 65.5445 81.472C65.4285 81.4132 65.3003 81.342 65.1588 81.2558C64.4199 80.8058 63.9872 80.5863 63.4604 80.4248C63.4287 80.4151 63.3966 80.4065 63.3647 80.3972C63.2052 80.3513 63.0375 80.3089 62.8469 80.267C61.2131 79.9077 59.8148 80.1446 58.8589 80.9168C58.7812 80.9869 58.7007 81.0621 58.6116 81.1495C58.5414 81.2184 58.4747 81.2877 58.4108 81.3563C58.3437 81.4362 58.2798 81.5195 58.2196 81.6067C58.0222 81.8927 57.9417 82.0174 57.9479 82.1351C57.967 82.1955 57.9978 82.2709 58.0364 82.3549C58.0473 82.3731 58.0569 82.3897 58.0696 82.4102C58.5461 83.1758 59.0845 84.3086 59.4057 85.2214C59.8794 86.5676 59.923 87.0732 59.5661 87.0732C59.42 87.0732 59.2498 86.8487 59.0159 86.3474C58.4425 85.1187 57.6577 83.6527 56.9874 82.5019C56.4066 81.524 55.8763 80.7163 55.6939 80.5727C55.6616 80.5538 55.6402 80.5566 55.6337 80.5886C55.6065 80.7231 55.9053 81.9641 56.2637 83.2272C56.362 83.5166 56.4104 83.7151 56.4074 83.8484C56.41 83.9544 56.3808 84.0201 56.3169 84.0824C56.1963 84.2001 56.0969 84.1463 55.8009 83.8039C55.1968 83.105 54.5655 81.0705 54.5655 79.8223C54.5655 79.6062 54.5354 79.433 54.4789 79.3099C54.4559 79.2634 54.4314 79.225 54.4054 79.1988C54.3562 79.1495 54.3202 79.1178 54.2934 79.109C54.2747 79.1165 54.2574 79.1307 54.242 79.1514C54.2267 79.2003 54.2221 79.3131 54.2203 79.4666C54.2264 79.5917 54.2373 79.7487 54.2533 79.9583C54.3289 80.9477 54.5221 81.8452 54.9295 83.1002C55.0598 83.5016 55.137 83.9066 55.1012 84.0001C54.9209 84.4711 54.3098 83.8851 53.8859 82.8348C53.6658 82.2894 53.6512 82.2763 53.6452 82.62C53.6276 83.6398 54.2409 86.4656 55.103 89.3373C56.5053 94.0085 58.8108 98.2726 60.3822 99.1019C60.5648 99.1982 60.6462 99.2314 60.7268 99.1749C60.7512 99.1522 60.7792 99.1218 60.8098 99.0874C60.8374 99.0511 60.8671 99.0087 60.9034 98.9531C61.0803 98.6828 61.115 98.3046 61.1471 96.2903C61.1751 94.5296 61.2211 93.9286 61.3312 93.8862C61.7165 93.738 61.9821 94.3627 62.0915 95.616C62.1767 96.2379 62.2179 96.9686 62.1909 97.6955L62.1544 98.6687L62.1999 98.6964L62.5573 98.8474C63.4402 99.2203 63.7796 99.2999 65.5925 99.3171C66.006 99.3193 66.4077 99.3215 67.0165 99.3219C69.4553 99.318 71.9536 99.2158 72.6387 99.0892C72.7368 99.0711 73.3986 99.0186 74.1096 98.9724C75.1627 98.904 75.4107 98.8532 75.4468 98.6996C75.4978 98.4826 75.4078 98.316 73.9664 95.9565C70.1526 89.7134 67.7217 84.5423 66.8702 80.8608C66.7284 80.2478 66.6337 79.6434 66.5879 79.1283C66.5437 78.7794 66.5183 78.476 66.5148 78.2429C66.4991 78.021 66.5061 77.8985 66.5437 77.841C66.5577 77.7855 66.5764 77.7469 66.6007 77.7319C66.6366 77.7095 66.6767 77.7025 66.7181 77.706C66.7289 77.6993 66.74 77.6937 66.7518 77.6915C66.8788 77.6662 66.96 77.7407 67.0136 77.9299C67.0503 77.9951 67.0744 78.068 67.0744 78.1433C67.0744 78.1526 67.0791 78.1778 67.0826 78.1986C67.4524 79.6841 68.4758 83.0095 68.8905 84.0541C69.2956 85.0744 70.0812 86.892 70.5455 87.9081C70.6708 88.1662 70.7979 88.4258 70.931 88.6898C71.0125 88.8238 71.2585 89.2825 71.5262 89.8021C71.8222 90.3769 72.1579 91.0039 72.2722 91.1955C72.3865 91.3871 72.6525 91.8574 72.8631 92.2406C73.0737 92.6238 73.3354 93.068 73.4447 93.2276C73.554 93.3873 73.7746 93.7531 73.9349 94.0405C74.0953 94.3279 74.7282 95.3792 75.3413 96.3769C75.9386 97.3488 76.2988 98.0126 76.4129 98.3455C76.4382 98.4085 76.4561 98.4603 76.4561 98.4843C76.4561 98.4894 76.4544 98.4977 76.454 98.5036C76.4548 98.5107 76.4561 98.5189 76.4561 98.5252C76.4561 98.709 76.302 99.186 76.1137 99.5852C75.953 99.9256 75.8449 100.211 75.8445 100.287C75.8936 100.282 75.9964 100.245 76.1216 100.191C76.2169 100.142 76.325 100.085 76.4392 100.019C76.8445 99.787 77.1142 99.6962 77.3189 99.753C77.4569 99.7788 77.5557 99.8762 77.651 100.047C77.6685 100.076 77.6858 100.107 77.7028 100.14L77.7564 100.245C77.8111 100.348 77.8525 100.423 77.8829 100.472C77.9238 100.484 77.9693 100.479 78.0227 100.455L78.3899 100.14C78.4869 100.057 78.5864 99.9834 78.6812 99.9186C78.6852 99.9159 78.6886 99.9135 78.6925 99.9109C78.7474 99.8737 78.8015 99.8374 78.8491 99.8106C78.9185 99.7638 78.9761 99.7301 78.9993 99.7301C79.0042 99.7301 79.0116 99.7336 79.0185 99.7362C79.03 99.7336 79.042 99.7303 79.0506 99.7303C79.1028 99.7303 79.1817 99.7797 79.2655 99.8578C79.3612 99.9272 79.4532 100.041 79.5481 100.202C79.5692 100.238 79.5916 100.271 79.6139 100.303C79.7184 100.44 79.816 100.537 79.8596 100.541C79.8945 100.534 79.9877 100.485 80.117 100.406C80.2473 100.322 80.4127 100.206 80.5814 100.079C80.8707 99.8597 81.1901 99.6759 81.3558 99.6276C81.3662 99.6236 81.3737 99.622 81.3816 99.6199C81.3869 99.6181 81.3941 99.614 81.3967 99.614C81.3971 99.614 81.3989 99.6155 81.3993 99.6155C81.4007 99.6155 81.4033 99.6142 81.4048 99.6142C81.4065 99.6142 81.4101 99.616 81.4122 99.6164C81.4161 99.616 81.4225 99.6142 81.426 99.6142C81.5695 99.6142 81.7931 99.8123 82.0162 100.137C82.3187 100.578 82.4435 100.691 82.7686 100.414C82.803 100.382 82.8384 100.349 82.8765 100.313C82.982 100.21 83.1021 100.084 83.2554 99.9152C83.5239 99.6194 83.7364 99.4534 83.9723 99.3992C83.9961 99.3885 84.016 99.382 84.0295 99.382C84.0345 99.382 84.0467 99.385 84.0528 99.3855C84.2691 99.3592 84.5109 99.4201 84.8353 99.556C84.9666 99.611 85.0891 99.6581 85.1798 99.69C85.2354 99.6966 85.282 99.6973 85.3108 99.6865C85.2882 99.6139 85.2091 99.4502 85.1009 99.2488C85.003 99.1192 84.9268 98.9895 84.8679 98.8419L84.7374 98.6444L84.736 98.5972L84.6216 98.3947L84.5924 96.0723C84.5526 92.8999 84.1727 88.871 83.488 84.3403C83.2543 82.9221 82.9919 81.5104 82.7028 80.1357C82.6038 79.6981 82.4926 79.215 82.3542 78.6227C82.2402 78.1349 82.1548 77.7483 82.0906 77.4325C81.9988 77.0522 81.9448 76.8032 81.9334 76.6534C81.9334 76.653 81.9334 76.6525 81.9334 76.6525C81.9334 76.6521 81.933 76.6508 81.933 76.6508C81.9026 76.519 81.9126 76.4433 81.9665 76.4101C81.9714 76.3947 81.9771 76.3816 81.9848 76.3738C82.1311 76.2271 82.2659 76.2941 82.4834 76.6732C82.5819 76.8261 82.6849 77.0313 82.7915 77.2867C82.7924 77.2885 82.7933 77.2898 82.7941 77.2917C83.2391 78.2573 83.5994 79.5773 83.9897 81.673C84.1324 82.4394 84.2898 83.1118 84.3394 83.1674C84.3891 83.223 84.4636 83.014 84.505 82.7029C84.5993 81.9956 85.3236 79.6157 85.6248 79.0238C85.7588 78.7604 85.8846 78.6262 86.0033 78.6182C86.0939 78.5698 86.1741 78.5995 86.2426 78.7106C86.2496 78.7219 86.2452 78.7828 86.236 78.8643C86.236 78.9146 86.2311 78.9761 86.2229 79.046C86.2071 79.3624 86.1046 79.8985 85.9048 80.8021C84.7615 85.9733 84.7303 86.2467 85.0217 88.5409C85.3303 90.9706 85.6058 94.7798 85.606 96.6208C85.6062 97.9921 85.6289 98.145 85.92 98.74C86.1311 99.1715 86.2498 99.3535 86.3994 99.3603C86.4563 99.3416 86.5355 99.3106 86.6242 99.2727C86.6528 99.2538 86.681 99.2353 86.7133 99.2108C86.8629 99.0974 86.995 99.0386 87.1264 99.0384L87.2483 98.9802L87.2576 98.9749L87.2581 98.9754L87.2589 98.9751L87.3849 99.1146C87.5473 99.2085 87.7239 99.3898 87.9435 99.6716C88.085 99.8533 88.2225 100.016 88.3303 100.132C88.4279 100.221 88.5032 100.272 88.5601 100.287C88.5937 100.236 88.6178 100.106 88.6178 99.9542C88.6178 99.4874 88.8065 99.1491 89.0664 99.1491C89.1812 99.1491 89.6352 99.3831 90.0756 99.6691C90.516 99.9552 90.9047 100.19 90.9393 100.192C90.9739 100.193 90.9998 99.9199 90.9972 99.5845C90.997 99.5629 90.9972 99.5464 90.9972 99.5263C90.9941 99.4607 90.9954 99.4009 90.9998 99.3446C91.0088 99.0706 91.0486 98.986 91.1733 98.9529C91.2113 98.9296 91.2546 98.9168 91.3036 98.9168C91.3139 98.9168 91.3302 98.927 91.3491 98.9425C91.4697 98.9673 91.562 99.0746 91.6715 99.3058C91.7946 99.566 91.9899 99.7519 92.2275 99.8349C92.3747 99.8864 92.512 99.919 92.5863 99.9229C92.5898 99.9226 92.5952 99.9229 92.5983 99.9225C92.6227 99.9074 92.6342 99.8811 92.6338 99.8413C92.6087 99.7455 92.5364 99.5704 92.4383 99.3777C92.2108 98.9305 92.2048 98.8707 92.3716 98.7034C92.5384 98.5362 92.5944 98.5588 93.0027 98.9586C93.2399 99.1908 93.381 99.3018 93.5411 99.3448C93.5635 99.3508 93.5872 99.354 93.6106 99.3575C93.6225 99.3593 93.6338 99.3619 93.6461 99.3632C93.6465 99.3632 93.6465 99.3631 93.647 99.3632C93.7129 99.3691 93.7851 99.3676 93.8689 99.3601L94.2833 99.3234L94.2707 99.3032L94.1272 99.1149L93.8329 98.7589C93.6823 98.5766 93.5494 98.3784 93.464 98.2189C93.4525 98.1991 93.4425 98.1794 93.4339 98.1601C93.3923 98.0747 93.3667 98.0035 93.3667 97.9599C93.3667 97.9559 93.3689 97.9468 93.3698 97.9415C93.3693 97.936 93.3667 97.9284 93.3667 97.9238C93.3667 97.8137 93.4913 97.513 93.73 97.039C94.0147 96.4129 94.3842 95.6741 94.5265 95.4911C94.9928 94.8919 97.3149 90.2715 97.9988 88.582C99.7063 84.3637 100.405 81.0994 100.832 75.3442C100.895 74.5015 100.942 73.9338 100.99 73.5367C101.015 73.2528 101.04 73.0702 101.083 72.9937C101.164 72.7162 101.269 72.7657 101.449 72.947C101.735 73.2332 101.783 76.0016 101.54 78.2507C101.042 82.8825 100.044 86.5507 97.9551 90.9949C97.6785 91.613 97.4372 92.1265 97.3043 92.3559C97.2825 92.3935 97.2295 92.4909 97.195 92.5528C96.7403 93.4529 96.2432 94.3889 95.697 95.375C95.078 96.4927 94.5583 97.4725 94.4392 97.7428C94.4309 97.7618 94.4309 97.7662 94.4266 97.7779C94.4201 97.7986 94.4188 97.81 94.4161 97.8242C94.4239 97.8925 94.4981 98.0376 94.5887 98.1578C94.7232 98.3361 95.3925 98.4486 96.396 98.5014C96.8666 98.5081 97.4675 98.5105 98.284 98.5105C98.8377 98.5105 99.3866 98.5037 99.9198 98.4938C101.619 98.4278 103.534 98.2859 105.392 98.0728C106.024 97.9951 106.571 97.9249 106.893 97.8755C107.229 97.8089 107.334 97.7174 107.379 97.4605C107.38 97.445 107.382 97.4303 107.382 97.4146C107.382 97.3334 107.393 97.2581 107.413 97.1904C107.441 96.9775 107.491 96.9071 107.632 96.8901C107.698 96.8588 107.77 96.8577 107.839 96.8964C107.982 96.9267 108.049 97.0293 108.121 97.2913C108.274 97.8541 108.711 98.4953 109.018 98.6369C109.04 98.6456 109.061 98.6532 109.082 98.6596C109.089 98.6609 109.096 98.6641 109.103 98.665C109.103 98.6651 109.103 98.6649 109.104 98.665C109.515 98.7234 110.156 98.2214 110.873 97.2795C113.122 94.3245 114.976 88.5852 115.3 83.6671C115.305 83.5266 115.312 83.3905 115.316 83.2407L115.359 81.769C115.359 81.7412 115.357 81.7256 115.356 81.7021C115.35 81.6683 115.343 81.6373 115.338 81.6109L115.196 82.3855C115.102 83.1359 114.937 83.8412 114.753 84.3534C114.674 84.5901 114.596 84.7658 114.513 84.8861C114.411 85.0577 114.309 85.1567 114.215 85.1567C114.174 85.1567 114.144 85.1395 114.121 85.1002C114.053 85.0993 114.014 85.0771 114.007 84.9329C113.993 84.8074 114.008 84.59 114.042 84.1987C114.066 83.9122 114.093 83.6367 114.117 83.4038C114.145 83.0092 114.182 82.6088 114.218 82.3324C114.35 81.3402 114.368 79.2422 114.249 79.1795C114.205 79.1781 114.151 79.212 114.095 79.2722C113.963 79.4606 113.872 79.9289 113.818 80.6906C113.72 82.0779 113.456 83.4266 113.163 84.2311C113.139 84.3003 113.114 84.3648 113.089 84.4257C113.088 84.4266 113.088 84.4275 113.088 84.4284C112.945 84.7734 112.795 84.9824 112.655 84.9824C112.655 84.9824 112.655 84.9824 112.655 84.9824C112.545 84.9823 112.475 84.952 112.439 84.8525C112.373 84.6829 112.406 84.3162 112.524 83.577C112.62 82.9768 112.729 81.9894 112.765 81.3827L112.827 80.3725C112.8 80.395 112.769 80.4302 112.732 80.4796L112.366 81.2085C111.233 83.4674 109.988 86.9652 109.245 89.9756C108.883 91.443 108.799 91.6594 108.598 91.6594C108.595 91.6594 108.594 91.6589 108.592 91.6589C108.59 91.659 108.589 91.6594 108.587 91.6594C108.537 91.6594 108.497 91.6505 108.465 91.6292C108.457 91.6236 108.449 91.6171 108.442 91.6095C108.408 91.5742 108.385 91.514 108.368 91.4208C108.313 91.2526 108.302 90.9838 108.327 90.6415C108.354 89.3708 108.866 87.4134 109.898 84.6404L110.359 83.4012C110.383 83.237 110.284 83.0999 109.936 82.7163L109.128 81.9417C107.659 80.5335 106.573 79.8934 105.428 79.8214C105.354 79.8197 105.278 79.8184 105.193 79.8179C105.086 79.8176 104.977 79.8223 104.866 79.8302C104.724 79.8431 104.58 79.8611 104.434 79.8894C103.653 80.0401 102.582 80.475 102.25 80.7761C102.067 80.9419 102.029 80.957 101.91 80.8043C101.866 80.7862 101.841 80.7492 101.834 80.6974C101.718 80.5178 101.783 80.4274 102.309 79.9207C102.33 79.9008 102.35 79.884 102.371 79.8649C102.375 79.8605 102.379 79.8566 102.384 79.8522C102.389 79.8478 102.394 79.8441 102.399 79.8397C102.978 79.3095 103.551 79.0522 104.515 78.8903C104.754 78.8502 104.949 78.7647 104.949 78.7005C104.949 78.6363 104.567 77.8417 104.1 76.9349C102.273 73.3864 101.321 70.5767 101.003 67.7965C100.926 67.1259 100.831 66.5411 100.792 66.497C100.753 66.4528 100.278 66.7843 99.737 67.2336C99.1955 67.6829 98.5432 68.1894 98.2874 68.359C98.0315 68.5286 97.629 68.8162 97.3929 68.9981C96.6956 69.5353 94.84 70.5186 93.951 70.822C93.2611 71.0575 93.1089 71.0772 93.0251 70.9413C93.004 70.907 92.9917 70.8679 92.9833 70.8281C92.9533 70.7802 92.9401 70.734 92.9573 70.7061C92.9595 70.7026 92.969 70.6947 92.9765 70.688C92.9908 70.5685 93.0524 70.4673 93.1434 70.4673C93.262 70.4673 95.3391 69.2287 96.3202 68.5731C97.9386 67.4916 99.8891 65.8959 101.275 64.5477C101.684 64.1297 102.091 63.6966 102.465 63.2812C103.047 62.5947 103.793 61.6362 104.227 61.0262C104.341 60.8584 104.449 60.6948 104.55 60.5388C104.561 60.5168 104.572 60.4957 104.577 60.4816C104.611 60.3854 104.734 60.17 104.849 60.0031L105.033 59.7361C105.039 59.7228 105.046 59.7092 105.05 59.6987L104.488 59.6318C103.659 59.5334 102.693 59.0147 102.094 58.3463C101.286 57.4462 100.902 56.3614 100.893 54.9586C100.893 54.9297 100.892 54.9008 100.892 54.8718C100.892 54.865 100.892 54.8586 100.892 54.8518C100.892 54.8291 100.893 54.8072 100.893 54.7847C100.894 54.7466 100.894 54.7086 100.895 54.6704C100.927 53.5694 101.183 52.726 101.688 52.0561C101.784 51.9204 101.89 51.7925 102.003 51.6714C102.006 51.6688 102.008 51.6657 102.011 51.663C102.021 51.6525 102.03 51.6419 102.04 51.6315C102.786 50.8182 103.61 50.4632 104.746 50.4463C105.085 50.4412 105.364 50.4088 105.404 50.3721C105.407 50.3658 105.408 50.359 105.409 50.3521C105.401 50.2926 105.272 49.9177 105.111 49.4924C104.304 47.357 103.715 45.3462 103.328 43.4112C103 41.7667 102.574 40.0645 102.209 38.9406C101.813 37.7207 100.889 35.7537 100.377 35.0388C100.152 34.7256 99.9685 34.443 99.9685 34.411C99.9685 34.3789 99.6819 33.9782 99.3315 33.5203C98.9136 32.9743 98.712 32.6349 98.708 32.4483C98.6887 32.3256 98.7429 32.2637 98.8723 32.2637C98.8787 32.2637 98.8855 32.2647 98.892 32.265C98.897 32.2645 98.9013 32.2637 98.9067 32.2637C98.9093 32.2637 98.915 32.2655 98.9185 32.2664C98.9365 32.2651 98.9545 32.2637 98.9748 32.2637C99.1755 32.2637 99.4882 32.5177 100.08 33.1618L100.906 34.0599L100.89 32.6426L100.86 31.5665C100.851 31.2533 100.838 30.94 100.825 30.6266C100.667 27.7115 100.231 23.9727 99.724 21.3406C99.6957 21.196 99.6667 21.0516 99.6374 20.9074C99.3008 19.2873 98.48 16.2149 97.8996 14.4154C97.2727 12.4718 97.2663 12.4625 95.9039 11.538C94.3627 10.4921 93.0732 10.0162 91.4268 9.88553L91.0099 9.85244L90.5869 9.85217ZM97.7605 40.4601C99.1827 40.4771 100.54 41.3404 101.224 42.8163C101.653 43.7397 101.649 45.1529 101.215 46.0818C100.848 46.8684 100.098 47.6134 99.3332 47.9515C98.6202 48.2667 97.4128 48.3543 96.8233 48.1334C95.6186 47.6817 94.8134 46.9512 94.3114 45.8547C93.9134 44.9854 93.8973 43.6281 94.2747 42.7816C94.6814 41.8696 95.2559 41.2586 96.0976 40.8432C96.6377 40.5766 97.2041 40.4535 97.7605 40.4601ZM33.6598 40.7751C33.468 40.7782 33.3542 40.792 33.3388 40.8182C33.2793 40.9202 33.6937 42.0971 34.7224 44.7464C35.347 46.3548 35.7315 47.2693 37.0167 50.204C37.9527 52.3413 40.0043 56.5145 40.6147 57.5226C40.8983 57.991 41.1302 58.4048 41.1302 58.4422C41.1302 58.4483 41.1429 58.4724 41.1524 58.4924C41.2844 58.7177 41.3943 58.8998 41.4813 59.0374C41.5081 59.0787 41.5329 59.118 41.5612 59.1607L41.7684 59.4739L41.9577 59.7538L42.9354 59.7665L43.6749 59.7316C45.4284 59.6486 51.5722 59.82 55.2487 60.0545C55.3852 60.0633 55.4624 60.07 55.5828 60.0781C56.9376 60.1473 57.3094 60.1861 57.4428 60.326C57.469 60.3444 57.4882 60.3641 57.5018 60.3859C57.5956 60.5354 57.484 61.0416 57.0286 62.5341C55.861 66.3608 54.519 71.0629 54.2244 72.3211C54.1817 72.5241 54.1695 72.6318 54.1816 72.6659C54.2501 72.7094 54.7278 72.8918 55.2912 73.0884C58.9191 74.3542 61.0921 75.1916 61.5792 75.5115C61.6035 75.5274 61.6299 75.5524 61.6568 75.5809L61.8074 75.6514L61.9027 75.9544C61.9534 76.055 61.9998 76.1623 62.035 76.2685C62.1416 76.5903 62.2638 76.8537 62.3065 76.8537C62.3492 76.8537 62.58 76.2919 62.8193 75.6054C63.2517 74.3648 63.6351 73.0181 63.5735 72.9564C63.5558 72.9387 62.554 72.4481 61.3473 71.8664C60.1406 71.2847 59.131 70.7861 59.1037 70.7587C58.9523 70.607 59.1019 70.0771 59.4518 69.5261C59.6707 69.1814 59.885 68.8211 59.928 68.7253C60.0149 68.5317 60.784 67.4252 62.0956 65.6065C62.5727 64.9452 63.0411 64.2906 63.1367 64.1516C63.2322 64.0127 63.561 63.5503 63.8671 63.124L64.2938 62.5298C64.3666 62.4097 64.4057 62.3326 64.4092 62.2992L64.1943 61.56C63.7298 59.9623 63.3907 57.6433 63.3742 55.952C63.3695 55.473 63.3144 54.1666 63.2516 53.049C63.1889 51.9313 63.1033 50.3734 63.0614 49.5869L62.9906 48.2579L62.984 48.1565L62.3252 47.8231C61.9624 47.6395 61.0194 47.2199 60.2296 46.8907C53.8813 44.2452 48.0353 42.5869 41.246 41.5054C39.0468 41.1551 35.2732 40.7974 33.877 40.7756C33.7964 40.7743 33.7238 40.7741 33.6598 40.7751ZM74.924 41.7263C75.0016 41.7246 75.0794 41.726 75.1568 41.7291C75.8224 41.7385 76.0922 41.801 76.599 42.0391C77.1577 42.3016 77.6675 42.7267 78.063 43.247C78.2072 43.4282 78.3232 43.6066 78.4159 43.794C78.4512 43.8591 78.4854 43.9248 78.5171 43.9916C78.772 44.5291 78.8191 44.7865 78.8148 45.6173C78.8104 46.4628 78.7619 46.7017 78.477 47.2838C78.0948 48.0646 77.3559 48.7759 76.5141 49.1735C75.6878 49.5637 74.2132 49.5637 73.3869 49.1735C72.3666 48.6917 71.624 47.8477 71.2722 46.8794C71.2306 46.7776 71.2009 46.6835 71.1792 46.5889C71.0041 45.9533 70.994 45.2761 71.181 44.62C71.5257 43.4107 72.2139 42.5838 73.3291 42.0386C73.8547 41.7818 74.11 41.7299 74.8952 41.7277C74.9048 41.7277 74.9144 41.7265 74.924 41.7263ZM89.4404 46.5823C89.8777 46.5973 90.1238 46.7294 90.1238 46.9624C90.1238 47.243 89.8004 47.7936 89.5196 47.9907C89.4208 48.0601 89.3343 48.1049 89.2477 48.1302C89.2348 48.1349 89.2214 48.1384 89.2084 48.1415C89.1994 48.1433 89.1902 48.145 89.1812 48.1465C89.1638 48.1492 89.1457 48.1512 89.1274 48.151C88.9725 48.1597 88.8013 48.1039 88.5487 47.9775C88.3513 47.8788 88.1019 47.6489 87.9945 47.4666C87.8744 47.263 87.8341 47.1792 87.8766 47.0883C87.8779 47.0829 87.8784 47.077 87.8801 47.0719C87.9015 47.0161 87.9491 46.9637 88.0179 46.9159C88.0192 46.9141 88.0201 46.9134 88.0218 46.9116C88.1656 46.7674 88.492 46.6593 88.9414 46.607C89.1276 46.5854 89.2947 46.5773 89.4404 46.5823ZM89.3212 49.6579C89.4528 49.6588 89.5779 49.6758 89.7067 49.7049C89.9615 49.7622 91.0325 50.2079 92.0868 50.6953C93.1926 51.2065 93.8613 51.4868 94.3853 51.5914C94.6853 51.6262 94.9837 51.6273 95.2665 51.5922C95.4721 51.5483 95.6842 51.4765 95.9306 51.3777C96.8134 51.0236 96.7977 51.0259 96.8803 51.2416C96.9734 51.4847 96.5441 51.9736 95.9906 52.2549C95.6755 52.4151 95.5233 52.4967 95.4357 52.6611C95.3917 52.7818 95.3533 52.9366 95.3205 53.1349C95.3092 53.2239 95.2978 53.323 95.285 53.4404C95.1784 54.4243 94.8419 55.8269 94.2363 57.8099C93.2823 60.9336 91.994 63.5316 90.7091 64.923C89.431 66.3069 88.1993 66.6981 86.8089 66.162C86.6837 66.1137 86.5586 66.0534 86.4338 65.9873C86.3113 65.9305 86.2026 65.8665 86.0872 65.7825C83.6563 64.1756 81.4055 59.3491 80.7401 54.094C80.6857 53.6641 80.6289 53.3751 80.5616 53.1977C80.559 53.1908 80.5561 53.1851 80.5535 53.1785C80.5422 53.1506 80.531 53.1242 80.5191 53.1023C80.5169 53.0979 80.5143 53.0951 80.5121 53.0912C80.4847 53.0437 80.4558 53.01 80.4245 52.9909C80.3459 52.943 80.1615 52.7958 79.9676 52.6283C79.9029 52.5724 79.837 52.5143 79.7737 52.4568C79.4519 52.1645 79.3438 51.9933 79.3887 51.8483C79.3891 51.8444 79.3904 51.8407 79.3913 51.8367C79.3917 51.8358 79.3917 51.835 79.3922 51.8341C79.3923 51.8337 79.3923 51.8332 79.3924 51.8332C79.3959 51.8163 79.4026 51.8011 79.4116 51.7874C79.4413 51.7181 79.4736 51.6792 79.5691 51.686C79.6159 51.6878 79.6792 51.7023 79.7618 51.7282C79.7627 51.7284 79.7627 51.7284 79.7636 51.7286C79.7792 51.7336 79.7977 51.7398 79.8149 51.7457C79.9934 51.8025 80.2536 51.9002 80.6603 52.0541C81.2423 52.2744 81.667 52.3521 82.2906 52.3521C83.3098 52.3521 83.803 52.1672 86.3881 50.8162C86.4679 50.7746 86.5315 50.7428 86.6069 50.7038C86.7087 50.6509 86.8103 50.5978 86.9093 50.5482C88.2003 49.8898 88.8157 49.654 89.3212 49.6579ZM69.8326 52.5147C70.6639 52.5143 71.5082 52.7812 72.2397 53.2463C72.7437 53.5427 73.1724 53.9365 73.5136 54.4188C73.7016 54.6693 73.8644 54.9392 73.9961 55.2258C74.1625 55.5879 74.2399 55.8139 74.2764 56.1935C74.4004 56.787 74.4035 57.3854 74.2994 57.9594C74.276 58.4889 74.1938 58.6884 73.9223 59.2306C73.179 60.7157 71.847 61.6061 70.0861 61.7952C69.7995 61.826 69.3304 61.8046 69.0437 61.7478C68.4948 61.6391 67.997 61.4612 67.5532 61.2196C67.3916 61.1463 67.2639 61.081 67.2134 61.0413C67.1537 60.9945 67.0929 60.9419 67.0322 60.8889C66.4354 60.4484 65.9648 59.867 65.6333 59.158C65.6289 59.1495 65.6229 59.1399 65.619 59.1315C65.4912 58.8659 65.4141 58.6773 65.3654 58.4617C65.3052 58.2674 65.2532 58.0658 65.2107 57.8566C65.1 57.3126 65.0974 56.9956 65.1989 56.4888C65.6205 54.384 67.0101 52.9991 69.1177 52.5834C69.3528 52.537 69.5922 52.5147 69.8326 52.5147Z" fill="#FFD73E"/>
<path d="M104.919 51.3956C104.497 51.3907 104.004 51.4764 103.617 51.6467C102.944 51.9428 102.335 52.6134 102.049 53.3735C101.736 54.2059 101.763 55.5428 102.086 56.478C102.15 56.645 102.22 56.8042 102.297 56.9554C102.632 57.5669 103.207 58.1679 103.733 58.4409C104.141 58.6529 105.047 58.6788 105.46 58.4901C106 58.2436 106.526 56.0135 106.405 54.4887C106.303 53.2144 105.947 51.763 105.69 51.5746C105.532 51.4582 105.247 51.3996 104.919 51.3956ZM69.857 53.3842C69.6634 53.3843 69.4708 53.4022 69.2815 53.4395C67.5848 53.7742 66.4661 54.8892 66.1266 56.5836C66.0449 56.9916 66.0471 57.2468 66.1361 57.6847C66.1704 57.8532 66.2121 58.0154 66.2606 58.1719C66.2998 58.3455 66.362 58.4974 66.4648 58.7112C66.468 58.718 66.4728 58.7257 66.4761 58.7326C66.743 59.3033 67.1221 59.7714 67.6025 60.126C67.6514 60.1686 67.7004 60.211 67.7484 60.2487C67.789 60.2806 67.8918 60.3332 68.0219 60.3923C68.3792 60.5867 68.7798 60.73 69.2218 60.8175C69.4525 60.8632 69.8302 60.8804 70.061 60.8556C71.4786 60.7034 72.5509 59.9866 73.1494 58.7911C73.3679 58.3545 73.434 58.1938 73.4529 57.7675C73.5367 57.3054 73.5342 56.8237 73.4344 56.346C73.405 56.0404 73.3426 55.8584 73.2086 55.5669C73.1026 55.3362 72.9716 55.119 72.8202 54.9174C72.5455 54.5291 72.2005 54.2121 71.7948 53.9734C71.2059 53.599 70.5262 53.3842 69.857 53.3844L69.857 53.3842Z" fill="#EE4E36"/>
<path d="M97.0964 41.5535C96.4359 41.5526 95.8023 42.2029 95.7992 42.8835C95.7992 42.8907 95.7995 42.8964 95.7995 42.9034C95.8042 43.1749 95.9393 43.5073 96.1284 43.7621C96.1336 43.7686 96.1391 43.7749 96.1442 43.7814C96.1768 43.8156 96.2098 43.85 96.2487 43.8891C96.3213 43.9619 96.3929 44.0248 96.4639 44.0801C96.8438 44.2951 97.5126 44.2566 97.892 43.9857C98.3651 43.648 98.539 43.0052 98.3076 42.4498C98.1153 41.9885 97.5284 41.5544 97.0964 41.5535ZM75.1014 42.7184C75.0656 42.7187 75.031 42.7212 74.9965 42.7234C74.0416 42.8226 73.5239 43.7754 73.9554 44.6507C74.0696 44.8574 74.2341 45.0465 74.4196 45.1896C74.8791 45.4895 75.5045 45.4619 75.983 45.0614C76.3074 44.7899 76.3791 44.6406 76.4275 44.1352C76.4354 44.0533 76.441 43.9843 76.4449 43.9211C76.4266 43.7177 76.3846 43.5389 76.3176 43.3867C76.2607 43.3121 76.1841 43.2307 76.0771 43.1234C75.9106 42.9565 75.7904 42.8562 75.662 42.7962C75.4994 42.7431 75.3131 42.7162 75.1014 42.7184Z" fill="white"/>
<path d="M87.7963 55.48C85.877 55.4983 84.1805 56.628 82.5977 58.3259C83.544 61.4074 84.9326 63.888 86.3936 64.9531C86.4982 65.0371 86.5967 65.1011 86.7078 65.1579C86.821 65.2241 86.9343 65.2843 87.0479 65.3326C88.3085 65.8687 89.4252 65.4775 90.5839 64.0936C91.579 62.9051 92.5756 60.8345 93.3843 58.3096C91.3059 56.2889 89.4669 55.4641 87.7963 55.48Z" fill="#EE7277"/>
</svg>
